<!--?xml version="1.0" encoding="utf-8"?-->
<!-- Generator: Adobe Illustrator 18.1.1, SVG Export Plug-In . SVG Version: 6.00 Build 0)  -->

<svg version="1.1" id="_x32_" xmlns="http://www.w3.org/2000/svg" xmlns:xlink="http://www.w3.org/1999/xlink" x="0px" y="0px" viewBox="0 0 512 512" style="width: 256px; height: 256px; opacity: 1;" xml:space="preserve">
<style type="text/css">
	.st0{fill:#4B4B4B;}
</style>
<g>
	<polygon class="st0" points="481.706,337.186 481.711,460.288 277.415,256 481.711,51.704 481.711,174.821 511.996,174.821 512,0 
		337.175,0 337.175,30.294 460.292,30.294 256,234.588 51.704,30.294 174.817,30.294 174.817,0 0,0 0.004,174.821 30.289,174.821 
		30.289,51.704 234.581,256 30.289,460.288 30.289,337.17 0.004,337.179 0,512 174.817,512 174.817,481.706 51.704,481.706 
		256,277.419 460.292,481.706 337.175,481.706 337.175,512 512,512 511.996,337.179 	" style="fill: rgb(75, 75, 75);"></polygon>
</g>
</svg>
